<svg xmlns="http://www.w3.org/2000/svg" xmlns:xlink="http://www.w3.org/1999/xlink" width="250" zoomAndPan="magnify" viewBox="0 0 187.5 56.249996" height="75" preserveAspectRatio="xMidYMid meet" version="1.0"><defs><g/></defs><g fill="#fcc509" fill-opacity="0.4"><g transform="translate(1.448569, 34.74959)"><g><path d="M 12.78125 -4.359375 C 13.519531 -4.359375 14.234375 -4.46875 14.921875 -4.6875 C 15.617188 -4.90625 16.128906 -5.117188 16.453125 -5.328125 L 16.9375 -5.65625 L 18.984375 -1.5625 C 18.921875 -1.507812 18.828125 -1.441406 18.703125 -1.359375 C 18.585938 -1.273438 18.3125 -1.113281 17.875 -0.875 C 17.4375 -0.644531 16.96875 -0.445312 16.46875 -0.28125 C 15.976562 -0.113281 15.332031 0.0351562 14.53125 0.171875 C 13.726562 0.316406 12.898438 0.390625 12.046875 0.390625 C 10.078125 0.390625 8.210938 -0.09375 6.453125 -1.0625 C 4.691406 -2.03125 3.273438 -3.359375 2.203125 -5.046875 C 1.128906 -6.734375 0.59375 -8.5625 0.59375 -10.53125 C 0.59375 -12.019531 0.90625 -13.445312 1.53125 -14.8125 C 2.164062 -16.175781 3.007812 -17.34375 4.0625 -18.3125 C 5.113281 -19.289062 6.335938 -20.070312 7.734375 -20.65625 C 9.140625 -21.238281 10.578125 -21.53125 12.046875 -21.53125 C 13.410156 -21.53125 14.664062 -21.363281 15.8125 -21.03125 C 16.96875 -20.707031 17.785156 -20.382812 18.265625 -20.0625 L 18.984375 -19.578125 L 16.9375 -15.484375 C 16.820312 -15.578125 16.644531 -15.695312 16.40625 -15.84375 C 16.164062 -15.988281 15.6875 -16.179688 14.96875 -16.421875 C 14.25 -16.660156 13.519531 -16.78125 12.78125 -16.78125 C 11.625 -16.78125 10.582031 -16.59375 9.65625 -16.21875 C 8.738281 -15.84375 8.007812 -15.347656 7.46875 -14.734375 C 6.925781 -14.117188 6.515625 -13.457031 6.234375 -12.75 C 5.953125 -12.039062 5.8125 -11.316406 5.8125 -10.578125 C 5.8125 -8.972656 6.414062 -7.535156 7.625 -6.265625 C 8.832031 -4.992188 10.550781 -4.359375 12.78125 -4.359375 Z M 12.78125 -4.359375 "/></g></g></g><g fill="#fcc509" fill-opacity="0.4"><g transform="translate(19.735567, 34.74959)"><g><path d="M 1.53125 0 L 1.53125 -13.140625 L 6.078125 -13.140625 L 6.078125 -11.25 L 6.125 -11.25 C 6.15625 -11.320312 6.207031 -11.40625 6.28125 -11.5 C 6.363281 -11.601562 6.53125 -11.78125 6.78125 -12.03125 C 7.039062 -12.289062 7.316406 -12.523438 7.609375 -12.734375 C 7.898438 -12.941406 8.273438 -13.125 8.734375 -13.28125 C 9.203125 -13.445312 9.671875 -13.53125 10.140625 -13.53125 C 10.640625 -13.53125 11.128906 -13.460938 11.609375 -13.328125 C 12.085938 -13.191406 12.4375 -13.054688 12.65625 -12.921875 L 13.015625 -12.703125 L 11.125 -8.859375 C 10.5625 -9.335938 9.773438 -9.578125 8.765625 -9.578125 C 8.210938 -9.578125 7.738281 -9.457031 7.34375 -9.21875 C 6.957031 -8.976562 6.679688 -8.6875 6.515625 -8.34375 C 6.359375 -8.007812 6.242188 -7.722656 6.171875 -7.484375 C 6.109375 -7.242188 6.078125 -7.054688 6.078125 -6.921875 L 6.078125 0 Z M 1.53125 0 "/></g></g></g><g fill="#fcc509" fill-opacity="0.4"><g transform="translate(31.49129, 34.74959)"><g><path d="M 11.5 -13.140625 L 16.734375 -13.140625 L 6.40625 6.65625 L 1.171875 6.65625 L 5.71875 -2.046875 L -0.515625 -13.140625 L 4.71875 -13.140625 L 8.375 -6.40625 Z M 11.5 -13.140625 "/></g></g></g><g fill="#fcc509" fill-opacity="0.4"><g transform="translate(46.70474, 34.74959)"><g><path d="M 15.0625 -11.515625 C 16.289062 -10.171875 16.90625 -8.523438 16.90625 -6.578125 C 16.90625 -4.640625 16.289062 -2.992188 15.0625 -1.640625 C 13.832031 -0.285156 12.269531 0.390625 10.375 0.390625 C 8.632812 0.390625 7.203125 -0.15625 6.078125 -1.25 L 6.078125 6.65625 L 1.53125 6.65625 L 1.53125 -13.140625 L 6.015625 -13.140625 L 6.015625 -11.65625 L 6.078125 -11.65625 C 7.203125 -12.90625 8.632812 -13.53125 10.375 -13.53125 C 12.269531 -13.53125 13.832031 -12.859375 15.0625 -11.515625 Z M 11.203125 -4.359375 C 11.796875 -4.941406 12.09375 -5.679688 12.09375 -6.578125 C 12.09375 -7.484375 11.8125 -8.222656 11.25 -8.796875 C 10.6875 -9.367188 9.941406 -9.65625 9.015625 -9.65625 C 8.128906 -9.65625 7.398438 -9.363281 6.828125 -8.78125 C 6.253906 -8.207031 5.96875 -7.472656 5.96875 -6.578125 C 5.96875 -5.679688 6.257812 -4.941406 6.84375 -4.359375 C 7.4375 -3.773438 8.160156 -3.484375 9.015625 -3.484375 C 9.890625 -3.484375 10.617188 -3.773438 11.203125 -4.359375 Z M 11.203125 -4.359375 "/></g></g></g><g fill="#fcc509" fill-opacity="0.4"><g transform="translate(63.198838, 34.74959)"><g><path d="M 2.3125 -13.140625 L 2.3125 -18.046875 L 6.84375 -18.046875 L 6.84375 -13.140625 L 9.609375 -13.140625 L 9.609375 -9.6875 L 6.84375 -9.6875 L 6.84375 -5.515625 C 6.84375 -4.296875 7.179688 -3.6875 7.859375 -3.6875 C 8.035156 -3.6875 8.21875 -3.71875 8.40625 -3.78125 C 8.59375 -3.851562 8.738281 -3.925781 8.84375 -4 L 9 -4.09375 L 10.125 -0.4375 C 9.144531 0.113281 8.035156 0.390625 6.796875 0.390625 C 5.941406 0.390625 5.207031 0.238281 4.59375 -0.0625 C 3.976562 -0.363281 3.507812 -0.765625 3.1875 -1.265625 C 2.875 -1.773438 2.648438 -2.304688 2.515625 -2.859375 C 2.378906 -3.410156 2.3125 -4.003906 2.3125 -4.640625 L 2.3125 -9.6875 L 0.40625 -9.6875 L 0.40625 -13.140625 Z M 2.3125 -13.140625 "/></g></g></g><g fill="#fcc509" fill-opacity="0.4"><g transform="translate(72.316433, 34.74959)"><g><path d="M 2.78125 -1.5625 C 1.320312 -2.863281 0.59375 -4.53125 0.59375 -6.5625 C 0.59375 -8.59375 1.351562 -10.257812 2.875 -11.5625 C 4.394531 -12.875 6.269531 -13.53125 8.5 -13.53125 C 10.707031 -13.53125 12.566406 -12.867188 14.078125 -11.546875 C 15.585938 -10.234375 16.34375 -8.566406 16.34375 -6.546875 C 16.34375 -4.535156 15.601562 -2.875 14.125 -1.5625 C 12.65625 -0.257812 10.78125 0.390625 8.5 0.390625 C 6.144531 0.390625 4.238281 -0.257812 2.78125 -1.5625 Z M 6.28125 -8.78125 C 5.695312 -8.207031 5.40625 -7.46875 5.40625 -6.5625 C 5.40625 -5.65625 5.6875 -4.914062 6.25 -4.34375 C 6.8125 -3.769531 7.554688 -3.484375 8.484375 -3.484375 C 9.367188 -3.484375 10.097656 -3.773438 10.671875 -4.359375 C 11.242188 -4.941406 11.53125 -5.675781 11.53125 -6.5625 C 11.53125 -7.46875 11.234375 -8.207031 10.640625 -8.78125 C 10.054688 -9.363281 9.335938 -9.65625 8.484375 -9.65625 C 7.609375 -9.65625 6.875 -9.363281 6.28125 -8.78125 Z M 6.28125 -8.78125 "/></g></g></g><g fill="#fcc509" fill-opacity="0.4"><g transform="translate(88.247046, 34.74959)"><g><path d="M 0.953125 3.234375 L 4.65625 1.40625 C 5.34375 2.53125 6.53125 3.09375 8.21875 3.09375 C 9.007812 3.09375 9.738281 2.84375 10.40625 2.34375 C 11.082031 1.84375 11.421875 1.070312 11.421875 0.03125 L 11.421875 -0.953125 C 10.617188 -0.0546875 9.1875 0.390625 7.125 0.390625 C 5.226562 0.390625 3.664062 -0.28125 2.4375 -1.625 C 1.207031 -2.96875 0.59375 -4.613281 0.59375 -6.5625 C 0.59375 -8.507812 1.207031 -10.15625 2.4375 -11.5 C 3.664062 -12.851562 5.226562 -13.53125 7.125 -13.53125 C 8.8125 -13.53125 10.222656 -13.007812 11.359375 -11.96875 L 11.421875 -11.96875 L 11.421875 -13.140625 L 15.96875 -13.140625 L 15.96875 0.359375 C 15.96875 2.492188 15.253906 4.140625 13.828125 5.296875 C 12.410156 6.460938 10.539062 7.046875 8.21875 7.046875 C 4.46875 7.046875 2.046875 5.773438 0.953125 3.234375 Z M 6.28125 -8.78125 C 5.695312 -8.207031 5.40625 -7.46875 5.40625 -6.5625 C 5.40625 -5.65625 5.6875 -4.914062 6.25 -4.34375 C 6.8125 -3.769531 7.554688 -3.484375 8.484375 -3.484375 C 9.367188 -3.484375 10.097656 -3.773438 10.671875 -4.359375 C 11.242188 -4.941406 11.53125 -5.675781 11.53125 -6.5625 C 11.53125 -7.46875 11.234375 -8.207031 10.640625 -8.78125 C 10.054688 -9.363281 9.335938 -9.65625 8.484375 -9.65625 C 7.609375 -9.65625 6.875 -9.363281 6.28125 -8.78125 Z M 6.28125 -8.78125 "/></g></g></g><g fill="#fcc509" fill-opacity="0.4"><g transform="translate(104.741144, 34.74959)"><g><path d="M 1.53125 0 L 1.53125 -13.140625 L 6.078125 -13.140625 L 6.078125 -11.25 L 6.125 -11.25 C 6.15625 -11.320312 6.207031 -11.40625 6.28125 -11.5 C 6.363281 -11.601562 6.53125 -11.78125 6.78125 -12.03125 C 7.039062 -12.289062 7.316406 -12.523438 7.609375 -12.734375 C 7.898438 -12.941406 8.273438 -13.125 8.734375 -13.28125 C 9.203125 -13.445312 9.671875 -13.53125 10.140625 -13.53125 C 10.640625 -13.53125 11.128906 -13.460938 11.609375 -13.328125 C 12.085938 -13.191406 12.4375 -13.054688 12.65625 -12.921875 L 13.015625 -12.703125 L 11.125 -8.859375 C 10.5625 -9.335938 9.773438 -9.578125 8.765625 -9.578125 C 8.210938 -9.578125 7.738281 -9.457031 7.34375 -9.21875 C 6.957031 -8.976562 6.679688 -8.6875 6.515625 -8.34375 C 6.359375 -8.007812 6.242188 -7.722656 6.171875 -7.484375 C 6.109375 -7.242188 6.078125 -7.054688 6.078125 -6.921875 L 6.078125 0 Z M 1.53125 0 "/></g></g></g><g fill="#ffffff" fill-opacity="1"><g transform="translate(1.448569, 34.74959)"><g><path d="M 12.78125 -4.359375 C 13.519531 -4.359375 14.234375 -4.46875 14.921875 -4.6875 C 15.617188 -4.90625 16.128906 -5.117188 16.453125 -5.328125 L 16.9375 -5.65625 L 18.984375 -1.5625 C 18.921875 -1.507812 18.828125 -1.441406 18.703125 -1.359375 C 18.585938 -1.273438 18.3125 -1.113281 17.875 -0.875 C 17.4375 -0.644531 16.96875 -0.445312 16.46875 -0.28125 C 15.976562 -0.113281 15.332031 0.0351562 14.53125 0.171875 C 13.726562 0.316406 12.898438 0.390625 12.046875 0.390625 C 10.078125 0.390625 8.210938 -0.09375 6.453125 -1.0625 C 4.691406 -2.03125 3.273438 -3.359375 2.203125 -5.046875 C 1.128906 -6.734375 0.59375 -8.5625 0.59375 -10.53125 C 0.59375 -12.019531 0.90625 -13.445312 1.53125 -14.8125 C 2.164062 -16.175781 3.007812 -17.34375 4.0625 -18.3125 C 5.113281 -19.289062 6.335938 -20.070312 7.734375 -20.65625 C 9.140625 -21.238281 10.578125 -21.53125 12.046875 -21.53125 C 13.410156 -21.53125 14.664062 -21.363281 15.8125 -21.03125 C 16.96875 -20.707031 17.785156 -20.382812 18.265625 -20.0625 L 18.984375 -19.578125 L 16.9375 -15.484375 C 16.820312 -15.578125 16.644531 -15.695312 16.40625 -15.84375 C 16.164062 -15.988281 15.6875 -16.179688 14.96875 -16.421875 C 14.25 -16.660156 13.519531 -16.78125 12.78125 -16.78125 C 11.625 -16.78125 10.582031 -16.59375 9.65625 -16.21875 C 8.738281 -15.84375 8.007812 -15.347656 7.46875 -14.734375 C 6.925781 -14.117188 6.515625 -13.457031 6.234375 -12.75 C 5.953125 -12.039062 5.8125 -11.316406 5.8125 -10.578125 C 5.8125 -8.972656 6.414062 -7.535156 7.625 -6.265625 C 8.832031 -4.992188 10.550781 -4.359375 12.78125 -4.359375 Z M 12.78125 -4.359375 "/></g></g></g><g fill="#ffffff" fill-opacity="1"><g transform="translate(19.735567, 34.74959)"><g><path d="M 1.53125 0 L 1.53125 -13.140625 L 6.078125 -13.140625 L 6.078125 -11.25 L 6.125 -11.25 C 6.15625 -11.320312 6.207031 -11.40625 6.28125 -11.5 C 6.363281 -11.601562 6.53125 -11.78125 6.78125 -12.03125 C 7.039062 -12.289062 7.316406 -12.523438 7.609375 -12.734375 C 7.898438 -12.941406 8.273438 -13.125 8.734375 -13.28125 C 9.203125 -13.445312 9.671875 -13.53125 10.140625 -13.53125 C 10.640625 -13.53125 11.128906 -13.460938 11.609375 -13.328125 C 12.085938 -13.191406 12.4375 -13.054688 12.65625 -12.921875 L 13.015625 -12.703125 L 11.125 -8.859375 C 10.5625 -9.335938 9.773438 -9.578125 8.765625 -9.578125 C 8.210938 -9.578125 7.738281 -9.457031 7.34375 -9.21875 C 6.957031 -8.976562 6.679688 -8.6875 6.515625 -8.34375 C 6.359375 -8.007812 6.242188 -7.722656 6.171875 -7.484375 C 6.109375 -7.242188 6.078125 -7.054688 6.078125 -6.921875 L 6.078125 0 Z M 1.53125 0 "/></g></g></g><g fill="#ffffff" fill-opacity="1"><g transform="translate(31.49129, 34.74959)"><g><path d="M 11.5 -13.140625 L 16.734375 -13.140625 L 6.40625 6.65625 L 1.171875 6.65625 L 5.71875 -2.046875 L -0.515625 -13.140625 L 4.71875 -13.140625 L 8.375 -6.40625 Z M 11.5 -13.140625 "/></g></g></g><g fill="#ffffff" fill-opacity="1"><g transform="translate(46.70474, 34.74959)"><g><path d="M 15.0625 -11.515625 C 16.289062 -10.171875 16.90625 -8.523438 16.90625 -6.578125 C 16.90625 -4.640625 16.289062 -2.992188 15.0625 -1.640625 C 13.832031 -0.285156 12.269531 0.390625 10.375 0.390625 C 8.632812 0.390625 7.203125 -0.15625 6.078125 -1.25 L 6.078125 6.65625 L 1.53125 6.65625 L 1.53125 -13.140625 L 6.015625 -13.140625 L 6.015625 -11.65625 L 6.078125 -11.65625 C 7.203125 -12.90625 8.632812 -13.53125 10.375 -13.53125 C 12.269531 -13.53125 13.832031 -12.859375 15.0625 -11.515625 Z M 11.203125 -4.359375 C 11.796875 -4.941406 12.09375 -5.679688 12.09375 -6.578125 C 12.09375 -7.484375 11.8125 -8.222656 11.25 -8.796875 C 10.6875 -9.367188 9.941406 -9.65625 9.015625 -9.65625 C 8.128906 -9.65625 7.398438 -9.363281 6.828125 -8.78125 C 6.253906 -8.207031 5.96875 -7.472656 5.96875 -6.578125 C 5.96875 -5.679688 6.257812 -4.941406 6.84375 -4.359375 C 7.4375 -3.773438 8.160156 -3.484375 9.015625 -3.484375 C 9.890625 -3.484375 10.617188 -3.773438 11.203125 -4.359375 Z M 11.203125 -4.359375 "/></g></g></g><g fill="#ffffff" fill-opacity="1"><g transform="translate(63.198838, 34.74959)"><g><path d="M 2.3125 -13.140625 L 2.3125 -18.046875 L 6.84375 -18.046875 L 6.84375 -13.140625 L 9.609375 -13.140625 L 9.609375 -9.6875 L 6.84375 -9.6875 L 6.84375 -5.515625 C 6.84375 -4.296875 7.179688 -3.6875 7.859375 -3.6875 C 8.035156 -3.6875 8.21875 -3.71875 8.40625 -3.78125 C 8.59375 -3.851562 8.738281 -3.925781 8.84375 -4 L 9 -4.09375 L 10.125 -0.4375 C 9.144531 0.113281 8.035156 0.390625 6.796875 0.390625 C 5.941406 0.390625 5.207031 0.238281 4.59375 -0.0625 C 3.976562 -0.363281 3.507812 -0.765625 3.1875 -1.265625 C 2.875 -1.773438 2.648438 -2.304688 2.515625 -2.859375 C 2.378906 -3.410156 2.3125 -4.003906 2.3125 -4.640625 L 2.3125 -9.6875 L 0.40625 -9.6875 L 0.40625 -13.140625 Z M 2.3125 -13.140625 "/></g></g></g><g fill="#ffffff" fill-opacity="1"><g transform="translate(72.316433, 34.74959)"><g><path d="M 2.78125 -1.5625 C 1.320312 -2.863281 0.59375 -4.53125 0.59375 -6.5625 C 0.59375 -8.59375 1.351562 -10.257812 2.875 -11.5625 C 4.394531 -12.875 6.269531 -13.53125 8.5 -13.53125 C 10.707031 -13.53125 12.566406 -12.867188 14.078125 -11.546875 C 15.585938 -10.234375 16.34375 -8.566406 16.34375 -6.546875 C 16.34375 -4.535156 15.601562 -2.875 14.125 -1.5625 C 12.65625 -0.257812 10.78125 0.390625 8.5 0.390625 C 6.144531 0.390625 4.238281 -0.257812 2.78125 -1.5625 Z M 6.28125 -8.78125 C 5.695312 -8.207031 5.40625 -7.46875 5.40625 -6.5625 C 5.40625 -5.65625 5.6875 -4.914062 6.25 -4.34375 C 6.8125 -3.769531 7.554688 -3.484375 8.484375 -3.484375 C 9.367188 -3.484375 10.097656 -3.773438 10.671875 -4.359375 C 11.242188 -4.941406 11.53125 -5.675781 11.53125 -6.5625 C 11.53125 -7.46875 11.234375 -8.207031 10.640625 -8.78125 C 10.054688 -9.363281 9.335938 -9.65625 8.484375 -9.65625 C 7.609375 -9.65625 6.875 -9.363281 6.28125 -8.78125 Z M 6.28125 -8.78125 "/></g></g></g><g fill="#ffffff" fill-opacity="1"><g transform="translate(88.247046, 34.74959)"><g><path d="M 0.953125 3.234375 L 4.65625 1.40625 C 5.34375 2.53125 6.53125 3.09375 8.21875 3.09375 C 9.007812 3.09375 9.738281 2.84375 10.40625 2.34375 C 11.082031 1.84375 11.421875 1.070312 11.421875 0.03125 L 11.421875 -0.953125 C 10.617188 -0.0546875 9.1875 0.390625 7.125 0.390625 C 5.226562 0.390625 3.664062 -0.28125 2.4375 -1.625 C 1.207031 -2.96875 0.59375 -4.613281 0.59375 -6.5625 C 0.59375 -8.507812 1.207031 -10.15625 2.4375 -11.5 C 3.664062 -12.851562 5.226562 -13.53125 7.125 -13.53125 C 8.8125 -13.53125 10.222656 -13.007812 11.359375 -11.96875 L 11.421875 -11.96875 L 11.421875 -13.140625 L 15.96875 -13.140625 L 15.96875 0.359375 C 15.96875 2.492188 15.253906 4.140625 13.828125 5.296875 C 12.410156 6.460938 10.539062 7.046875 8.21875 7.046875 C 4.46875 7.046875 2.046875 5.773438 0.953125 3.234375 Z M 6.28125 -8.78125 C 5.695312 -8.207031 5.40625 -7.46875 5.40625 -6.5625 C 5.40625 -5.65625 5.6875 -4.914062 6.25 -4.34375 C 6.8125 -3.769531 7.554688 -3.484375 8.484375 -3.484375 C 9.367188 -3.484375 10.097656 -3.773438 10.671875 -4.359375 C 11.242188 -4.941406 11.53125 -5.675781 11.53125 -6.5625 C 11.53125 -7.46875 11.234375 -8.207031 10.640625 -8.78125 C 10.054688 -9.363281 9.335938 -9.65625 8.484375 -9.65625 C 7.609375 -9.65625 6.875 -9.363281 6.28125 -8.78125 Z M 6.28125 -8.78125 "/></g></g></g><g fill="#ffffff" fill-opacity="1"><g transform="translate(104.741144, 34.74959)"><g><path d="M 1.53125 0 L 1.53125 -13.140625 L 6.078125 -13.140625 L 6.078125 -11.25 L 6.125 -11.25 C 6.15625 -11.320312 6.207031 -11.40625 6.28125 -11.5 C 6.363281 -11.601562 6.53125 -11.78125 6.78125 -12.03125 C 7.039062 -12.289062 7.316406 -12.523438 7.609375 -12.734375 C 7.898438 -12.941406 8.273438 -13.125 8.734375 -13.28125 C 9.203125 -13.445312 9.671875 -13.53125 10.140625 -13.53125 C 10.640625 -13.53125 11.128906 -13.460938 11.609375 -13.328125 C 12.085938 -13.191406 12.4375 -13.054688 12.65625 -12.921875 L 13.015625 -12.703125 L 11.125 -8.859375 C 10.5625 -9.335938 9.773438 -9.578125 8.765625 -9.578125 C 8.210938 -9.578125 7.738281 -9.457031 7.34375 -9.21875 C 6.957031 -8.976562 6.679688 -8.6875 6.515625 -8.34375 C 6.359375 -8.007812 6.242188 -7.722656 6.171875 -7.484375 C 6.109375 -7.242188 6.078125 -7.054688 6.078125 -6.921875 L 6.078125 0 Z M 1.53125 0 "/></g></g></g><g fill="#04aa6d" fill-opacity="1"><g transform="translate(117.503711, 34.723936)"><g><path d="M 12.265625 -21.109375 L 20.78125 0 L 15.609375 0 L 14.046875 -4.21875 L 6.015625 -4.21875 L 4.453125 0 L -0.71875 0 L 7.8125 -21.109375 Z M 12.40625 -8.453125 L 10.0625 -14.59375 L 10 -14.59375 L 7.65625 -8.453125 Z M 12.40625 -8.453125 "/></g></g></g><g fill="#04aa6d" fill-opacity="1"><g transform="translate(136.567205, 34.723936)"><g><path d="M 1.53125 -21.109375 L 9.234375 -21.109375 C 11.390625 -21.109375 13.128906 -20.550781 14.453125 -19.4375 C 15.785156 -18.332031 16.453125 -16.722656 16.453125 -14.609375 C 16.453125 -12.492188 15.773438 -10.832031 14.421875 -9.625 C 13.078125 -8.425781 11.347656 -7.828125 9.234375 -7.828125 L 6.34375 -7.828125 L 6.34375 0 L 1.53125 0 Z M 6.34375 -11.671875 L 7.703125 -11.671875 C 8.773438 -11.671875 9.65625 -11.882812 10.34375 -12.3125 C 11.039062 -12.75 11.390625 -13.460938 11.390625 -14.453125 C 11.390625 -15.460938 11.039062 -16.1875 10.34375 -16.625 C 9.65625 -17.0625 8.773438 -17.28125 7.703125 -17.28125 L 6.34375 -17.28125 Z M 6.34375 -11.671875 "/></g></g></g><g fill="#04aa6d" fill-opacity="1"><g transform="translate(152.611155, 34.723936)"><g><path d="M 1.53125 -21.109375 L 9.234375 -21.109375 C 11.390625 -21.109375 13.128906 -20.550781 14.453125 -19.4375 C 15.785156 -18.332031 16.453125 -16.722656 16.453125 -14.609375 C 16.453125 -12.492188 15.773438 -10.832031 14.421875 -9.625 C 13.078125 -8.425781 11.347656 -7.828125 9.234375 -7.828125 L 6.34375 -7.828125 L 6.34375 0 L 1.53125 0 Z M 6.34375 -11.671875 L 7.703125 -11.671875 C 8.773438 -11.671875 9.65625 -11.882812 10.34375 -12.3125 C 11.039062 -12.75 11.390625 -13.460938 11.390625 -14.453125 C 11.390625 -15.460938 11.039062 -16.1875 10.34375 -16.625 C 9.65625 -17.0625 8.773438 -17.28125 7.703125 -17.28125 L 6.34375 -17.28125 Z M 6.34375 -11.671875 "/></g></g></g><g fill="#04aa6d" fill-opacity="1"><g transform="translate(168.655103, 34.723936)"><g><path d="M 11.484375 -13.125 L 16.71875 -13.125 L 6.40625 6.65625 L 1.171875 6.65625 L 5.703125 -2.046875 L -0.515625 -13.125 L 4.703125 -13.125 L 8.375 -6.40625 Z M 11.484375 -13.125 "/></g></g></g></svg>