<svg xmlns="http://www.w3.org/2000/svg" xmlns:xlink="http://www.w3.org/1999/xlink" width="75" zoomAndPan="magnify" viewBox="0 0 56.25 56.249997" height="75" preserveAspectRatio="xMidYMid meet" version="1.0"><defs><g/></defs><g fill="#198754" fill-opacity="1"><g transform="translate(12.331439, 40.987359)"><g><path d="M 2.984375 -3.703125 C 2.890625 -3.796875 2.78125 -3.875 2.65625 -3.9375 C 2.53125 -4.007812 2.394531 -4.046875 2.25 -4.046875 C 2.144531 -4.046875 2.039062 -4.003906 1.9375 -3.921875 C 1.84375 -3.847656 1.796875 -3.75 1.796875 -3.625 C 1.796875 -3.5 1.847656 -3.398438 1.953125 -3.328125 C 2.066406 -3.253906 2.238281 -3.171875 2.46875 -3.078125 L 2.796875 -2.953125 C 3.097656 -2.835938 3.335938 -2.664062 3.515625 -2.4375 C 3.703125 -2.21875 3.796875 -1.925781 3.796875 -1.5625 C 3.796875 -1.0625 3.617188 -0.648438 3.265625 -0.328125 C 2.910156 -0.00390625 2.457031 0.15625 1.90625 0.15625 C 1.570312 0.15625 1.253906 0.0859375 0.953125 -0.046875 C 0.660156 -0.191406 0.410156 -0.394531 0.203125 -0.65625 L 0.828125 -1.46875 C 0.960938 -1.320312 1.113281 -1.191406 1.28125 -1.078125 C 1.457031 -0.960938 1.648438 -0.90625 1.859375 -0.90625 C 2.015625 -0.90625 2.144531 -0.953125 2.25 -1.046875 C 2.351562 -1.148438 2.40625 -1.28125 2.40625 -1.4375 C 2.40625 -1.582031 2.347656 -1.695312 2.234375 -1.78125 C 2.117188 -1.875 1.945312 -1.96875 1.71875 -2.0625 C 1.300781 -2.21875 1.019531 -2.359375 0.875 -2.484375 C 0.726562 -2.617188 0.625 -2.757812 0.5625 -2.90625 C 0.5 -3.0625 0.46875 -3.238281 0.46875 -3.4375 C 0.46875 -3.894531 0.613281 -4.269531 0.90625 -4.5625 C 1.207031 -4.863281 1.578125 -5.015625 2.015625 -5.015625 C 2.296875 -5.003906 2.578125 -4.957031 2.859375 -4.875 C 3.148438 -4.789062 3.390625 -4.671875 3.578125 -4.515625 Z M 2.984375 -3.703125 "/></g></g></g><g fill="#198754" fill-opacity="1"><g transform="translate(16.386486, 40.987359)"><g><path d="M 3.796875 -3.375 C 3.648438 -3.519531 3.492188 -3.632812 3.328125 -3.71875 C 3.171875 -3.800781 2.988281 -3.84375 2.78125 -3.84375 C 2.425781 -3.84375 2.128906 -3.703125 1.890625 -3.421875 C 1.660156 -3.140625 1.546875 -2.800781 1.546875 -2.40625 C 1.546875 -2 1.664062 -1.664062 1.90625 -1.40625 C 2.15625 -1.144531 2.460938 -1.015625 2.828125 -1.015625 C 3.015625 -1.015625 3.191406 -1.054688 3.359375 -1.140625 C 3.523438 -1.222656 3.671875 -1.332031 3.796875 -1.46875 L 3.796875 -0.140625 C 3.597656 -0.0234375 3.398438 0.0507812 3.203125 0.09375 C 3.015625 0.132812 2.8125 0.15625 2.59375 0.15625 C 1.90625 0.15625 1.320312 -0.0859375 0.84375 -0.578125 C 0.375 -1.078125 0.140625 -1.6875 0.140625 -2.40625 C 0.140625 -2.875 0.25 -3.3125 0.46875 -3.71875 C 0.6875 -4.125 0.988281 -4.441406 1.375 -4.671875 C 1.769531 -4.898438 2.203125 -5.015625 2.671875 -5.015625 C 2.859375 -5.015625 3.046875 -4.988281 3.234375 -4.9375 C 3.429688 -4.882812 3.617188 -4.804688 3.796875 -4.703125 Z M 3.796875 -3.375 "/></g></g></g><g fill="#198754" fill-opacity="1"><g transform="translate(20.55033, 40.987359)"><g><path d="M 1.875 -8.390625 L 1.875 -4.453125 L 1.90625 -4.453125 C 2.050781 -4.648438 2.234375 -4.789062 2.453125 -4.875 C 2.679688 -4.96875 2.921875 -5.015625 3.171875 -5.015625 C 3.722656 -5.015625 4.140625 -4.84375 4.421875 -4.5 C 4.703125 -4.164062 4.84375 -3.664062 4.84375 -3 L 4.84375 0 L 3.46875 0 L 3.46875 -2.84375 C 3.46875 -3.101562 3.4375 -3.304688 3.375 -3.453125 C 3.320312 -3.597656 3.242188 -3.707031 3.140625 -3.78125 C 3.046875 -3.863281 2.898438 -3.90625 2.703125 -3.90625 C 2.421875 -3.90625 2.210938 -3.789062 2.078125 -3.5625 C 1.941406 -3.332031 1.875 -2.984375 1.875 -2.515625 L 1.875 0 L 0.5 0 L 0.5 -8.390625 Z M 1.875 -8.390625 "/></g></g></g><g fill="#198754" fill-opacity="1"><g transform="translate(25.891127, 40.987359)"><g><path d="M 0.15625 -2.421875 C 0.15625 -3.191406 0.394531 -3.816406 0.875 -4.296875 C 1.363281 -4.773438 1.972656 -5.015625 2.703125 -5.015625 C 3.460938 -5.015625 4.078125 -4.769531 4.546875 -4.28125 C 5.023438 -3.789062 5.265625 -3.171875 5.265625 -2.421875 C 5.265625 -1.660156 5.023438 -1.039062 4.546875 -0.5625 C 4.066406 -0.0820312 3.453125 0.15625 2.703125 0.15625 C 1.960938 0.15625 1.351562 -0.0820312 0.875 -0.5625 C 0.394531 -1.050781 0.15625 -1.671875 0.15625 -2.421875 Z M 2.703125 -3.78125 C 2.390625 -3.78125 2.117188 -3.644531 1.890625 -3.375 C 1.671875 -3.113281 1.5625 -2.796875 1.5625 -2.421875 C 1.5625 -2.054688 1.671875 -1.738281 1.890625 -1.46875 C 2.117188 -1.195312 2.390625 -1.0625 2.703125 -1.0625 C 3.035156 -1.0625 3.3125 -1.195312 3.53125 -1.46875 C 3.75 -1.738281 3.859375 -2.054688 3.859375 -2.421875 C 3.859375 -2.773438 3.75 -3.085938 3.53125 -3.359375 C 3.320312 -3.640625 3.046875 -3.78125 2.703125 -3.78125 Z M 2.703125 -3.78125 "/></g></g></g><g fill="#198754" fill-opacity="1"><g transform="translate(31.311054, 40.987359)"><g><path d="M 0.15625 -2.421875 C 0.15625 -3.191406 0.394531 -3.816406 0.875 -4.296875 C 1.363281 -4.773438 1.972656 -5.015625 2.703125 -5.015625 C 3.460938 -5.015625 4.078125 -4.769531 4.546875 -4.28125 C 5.023438 -3.789062 5.265625 -3.171875 5.265625 -2.421875 C 5.265625 -1.660156 5.023438 -1.039062 4.546875 -0.5625 C 4.066406 -0.0820312 3.453125 0.15625 2.703125 0.15625 C 1.960938 0.15625 1.351562 -0.0820312 0.875 -0.5625 C 0.394531 -1.050781 0.15625 -1.671875 0.15625 -2.421875 Z M 2.703125 -3.78125 C 2.390625 -3.78125 2.117188 -3.644531 1.890625 -3.375 C 1.671875 -3.113281 1.5625 -2.796875 1.5625 -2.421875 C 1.5625 -2.054688 1.671875 -1.738281 1.890625 -1.46875 C 2.117188 -1.195312 2.390625 -1.0625 2.703125 -1.0625 C 3.035156 -1.0625 3.3125 -1.195312 3.53125 -1.46875 C 3.75 -1.738281 3.859375 -2.054688 3.859375 -2.421875 C 3.859375 -2.773438 3.75 -3.085938 3.53125 -3.359375 C 3.320312 -3.640625 3.046875 -3.78125 2.703125 -3.78125 Z M 2.703125 -3.78125 "/></g></g></g><g fill="#198754" fill-opacity="1"><g transform="translate(36.73098, 40.987359)"><g><path d="M 1.875 -8.390625 L 1.875 0 L 0.5 0 L 0.5 -8.390625 Z M 1.875 -8.390625 "/></g></g></g><g fill="#198754" fill-opacity="1"><g transform="translate(39.094784, 40.987359)"><g><path d="M 2.984375 -3.703125 C 2.890625 -3.796875 2.78125 -3.875 2.65625 -3.9375 C 2.53125 -4.007812 2.394531 -4.046875 2.25 -4.046875 C 2.144531 -4.046875 2.039062 -4.003906 1.9375 -3.921875 C 1.84375 -3.847656 1.796875 -3.75 1.796875 -3.625 C 1.796875 -3.5 1.847656 -3.398438 1.953125 -3.328125 C 2.066406 -3.253906 2.238281 -3.171875 2.46875 -3.078125 L 2.796875 -2.953125 C 3.097656 -2.835938 3.335938 -2.664062 3.515625 -2.4375 C 3.703125 -2.21875 3.796875 -1.925781 3.796875 -1.5625 C 3.796875 -1.0625 3.617188 -0.648438 3.265625 -0.328125 C 2.910156 -0.00390625 2.457031 0.15625 1.90625 0.15625 C 1.570312 0.15625 1.253906 0.0859375 0.953125 -0.046875 C 0.660156 -0.191406 0.410156 -0.394531 0.203125 -0.65625 L 0.828125 -1.46875 C 0.960938 -1.320312 1.113281 -1.191406 1.28125 -1.078125 C 1.457031 -0.960938 1.648438 -0.90625 1.859375 -0.90625 C 2.015625 -0.90625 2.144531 -0.953125 2.25 -1.046875 C 2.351562 -1.148438 2.40625 -1.28125 2.40625 -1.4375 C 2.40625 -1.582031 2.347656 -1.695312 2.234375 -1.78125 C 2.117188 -1.875 1.945312 -1.96875 1.71875 -2.0625 C 1.300781 -2.21875 1.019531 -2.359375 0.875 -2.484375 C 0.726562 -2.617188 0.625 -2.757812 0.5625 -2.90625 C 0.5 -3.0625 0.46875 -3.238281 0.46875 -3.4375 C 0.46875 -3.894531 0.613281 -4.269531 0.90625 -4.5625 C 1.207031 -4.863281 1.578125 -5.015625 2.015625 -5.015625 C 2.296875 -5.003906 2.578125 -4.957031 2.859375 -4.875 C 3.148438 -4.789062 3.390625 -4.671875 3.578125 -4.515625 Z M 2.984375 -3.703125 "/></g></g></g><g fill="#198754" fill-opacity="1"><g transform="translate(43.616522, 18.694569)"><g><path d="M 5.484375 -11.328125 C 6.367188 -11.328125 7.140625 -11.191406 7.796875 -10.921875 C 8.453125 -10.648438 8.945312 -10.285156 9.28125 -9.828125 C 9.625 -9.367188 9.796875 -8.859375 9.796875 -8.296875 C 9.796875 -7.742188 9.644531 -7.242188 9.34375 -6.796875 C 9.039062 -6.347656 8.648438 -6.03125 8.171875 -5.84375 L 8.171875 -5.78125 C 8.785156 -5.582031 9.257812 -5.242188 9.59375 -4.765625 C 9.9375 -4.285156 10.109375 -3.707031 10.109375 -3.03125 C 10.066406 -2.082031 9.65625 -1.304688 8.875 -0.703125 C 8.09375 -0.109375 6.941406 0.1875 5.421875 0.1875 C 4.378906 0.1875 3.5 0.0507812 2.78125 -0.21875 C 2.070312 -0.5 1.546875 -0.882812 1.203125 -1.375 C 0.859375 -1.863281 0.6875 -2.410156 0.6875 -3.015625 L 0.6875 -3.34375 L 3.53125 -3.34375 C 3.53125 -2.457031 4.09375 -2.015625 5.21875 -2.015625 C 6.332031 -2.015625 6.890625 -2.515625 6.890625 -3.515625 C 6.890625 -3.890625 6.785156 -4.175781 6.578125 -4.375 C 6.367188 -4.570312 6.097656 -4.671875 5.765625 -4.671875 L 4.578125 -4.671875 L 4.578125 -6.671875 L 5.5 -6.671875 C 5.832031 -6.671875 6.101562 -6.769531 6.3125 -6.96875 C 6.53125 -7.164062 6.640625 -7.453125 6.640625 -7.828125 C 6.640625 -8.191406 6.507812 -8.492188 6.25 -8.734375 C 6 -8.984375 5.65625 -9.109375 5.21875 -9.109375 C 4.75 -9.109375 4.382812 -8.988281 4.125 -8.75 C 3.863281 -8.519531 3.734375 -8.234375 3.734375 -7.890625 L 1.03125 -7.890625 L 1.03125 -8.28125 C 1.03125 -8.84375 1.207031 -9.351562 1.5625 -9.8125 C 1.914062 -10.28125 2.425781 -10.648438 3.09375 -10.921875 C 3.769531 -11.191406 4.566406 -11.328125 5.484375 -11.328125 Z M 5.484375 -11.328125 "/></g></g></g><g fill="#198754" fill-opacity="1"><g transform="translate(5.975406, 31.303206)"><g><path d="M 7.125 -13.734375 C 8.84375 -13.734375 10.257812 -13.378906 11.375 -12.671875 C 12.488281 -11.972656 13.054688 -10.9375 13.078125 -9.5625 L 13.078125 -9.328125 L 9.015625 -9.328125 L 9.015625 -9.40625 C 9.015625 -9.800781 8.867188 -10.128906 8.578125 -10.390625 C 8.296875 -10.648438 7.863281 -10.78125 7.28125 -10.78125 C 6.695312 -10.78125 6.25 -10.695312 5.9375 -10.53125 C 5.632812 -10.363281 5.484375 -10.15625 5.484375 -9.90625 C 5.484375 -9.550781 5.691406 -9.285156 6.109375 -9.109375 C 6.535156 -8.941406 7.210938 -8.769531 8.140625 -8.59375 C 9.222656 -8.363281 10.113281 -8.128906 10.8125 -7.890625 C 11.507812 -7.648438 12.117188 -7.253906 12.640625 -6.703125 C 13.171875 -6.160156 13.441406 -5.414062 13.453125 -4.46875 C 13.453125 -2.875 12.910156 -1.691406 11.828125 -0.921875 C 10.753906 -0.148438 9.316406 0.234375 7.515625 0.234375 C 5.410156 0.234375 3.769531 -0.113281 2.59375 -0.8125 C 1.425781 -1.519531 0.84375 -2.769531 0.84375 -4.5625 L 4.9375 -4.5625 C 4.9375 -3.882812 5.113281 -3.429688 5.46875 -3.203125 C 5.820312 -2.972656 6.375 -2.859375 7.125 -2.859375 C 7.664062 -2.859375 8.113281 -2.914062 8.46875 -3.03125 C 8.832031 -3.15625 9.015625 -3.398438 9.015625 -3.765625 C 9.015625 -4.085938 8.816406 -4.332031 8.421875 -4.5 C 8.023438 -4.664062 7.375 -4.835938 6.46875 -5.015625 C 5.375 -5.253906 4.46875 -5.5 3.75 -5.75 C 3.03125 -6.007812 2.398438 -6.429688 1.859375 -7.015625 C 1.328125 -7.609375 1.0625 -8.40625 1.0625 -9.40625 C 1.0625 -10.882812 1.628906 -11.972656 2.765625 -12.671875 C 3.910156 -13.378906 5.363281 -13.734375 7.125 -13.734375 Z M 7.125 -13.734375 "/></g></g></g><g fill="#198754" fill-opacity="1"><g transform="translate(20.124275, 31.303206)"><g><path d="M 1.453125 -13.484375 L 13.125 -13.484375 L 13.125 -10.25 L 5.78125 -10.25 L 5.78125 -8.390625 L 12.0625 -8.390625 L 12.0625 -5.296875 L 5.78125 -5.296875 L 5.78125 -3.234375 L 13.25 -3.234375 L 13.25 0 L 1.453125 0 Z M 1.453125 -13.484375 "/></g></g></g><g fill="#198754" fill-opacity="1"><g transform="translate(34.273145, 31.303206)"><g><path d="M 7.890625 -13.734375 C 9.890625 -13.734375 11.46875 -13.226562 12.625 -12.21875 C 13.789062 -11.21875 14.375 -9.789062 14.375 -7.9375 L 10.234375 -7.9375 C 10.234375 -8.726562 10.023438 -9.347656 9.609375 -9.796875 C 9.203125 -10.253906 8.617188 -10.484375 7.859375 -10.484375 C 6.984375 -10.484375 6.335938 -10.207031 5.921875 -9.65625 C 5.515625 -9.113281 5.3125 -8.351562 5.3125 -7.375 L 5.3125 -6.125 C 5.3125 -5.15625 5.515625 -4.390625 5.921875 -3.828125 C 6.335938 -3.273438 6.972656 -3 7.828125 -3 C 8.660156 -3 9.289062 -3.210938 9.71875 -3.640625 C 10.15625 -4.078125 10.375 -4.6875 10.375 -5.46875 L 14.375 -5.46875 C 14.375 -3.625 13.804688 -2.210938 12.671875 -1.234375 C 11.546875 -0.253906 9.953125 0.234375 7.890625 0.234375 C 5.585938 0.234375 3.84375 -0.351562 2.65625 -1.53125 C 1.46875 -2.707031 0.875 -4.445312 0.875 -6.75 C 0.875 -9.050781 1.46875 -10.789062 2.65625 -11.96875 C 3.84375 -13.144531 5.585938 -13.734375 7.890625 -13.734375 Z M 7.890625 -13.734375 "/></g></g></g></svg>